# File created by Blade
# Date/Time:  Tue Jan 27 20:02:46 2015
#---------------------------------------------------------
:version 1.10
:name HOM
:units
  mass 1.0
  length 1.000000
  angle deg
:documentation
     Acclaim Skeleton File
:root
   axis xyz
   order TX TY TZ RX RY RZ
   position 0.000000 0.000000 0.000000
   orientation 0 0 0
:bonedata
   begin
      id 1
      name Spine_dum
      direction 0.000000 1.000000 0.000000
      length 6.116652
      axis 0.0 0.0 0.0 xyz
   end
   begin
      id 2
      name LeftUpLeg_dum
      direction 1.000000 0.000000 0.000000
      length 4.711765
      axis 0.0 0.0 0.0 xyz
   end
   begin
      id 3
      name RightUpLeg_dum
      direction -1.000000 0.000000 0.000000
      length 4.711765
      axis 0.0 0.0 0.0 xyz
   end
   begin
      id 4
      name Spine
      direction 0.000000 1.000000 0.000000
      length 0.000000
      axis 0.0 0.0 0.0 xyz
      dof rx ry rz
   end
   begin
      id 5
      name Spine_dum1
      direction 0.000000 1.000000 0.000000
      length 15.225563
      axis 0.0 0.0 0.0 xyz
   end
   begin
      id 6
      name Spine_dum2
      direction 0.000000 1.000000 0.000000
      length 8.977654
      axis 0.0 0.0 0.0 xyz
   end
   begin
      id 7
      name Spine_dum3
      direction 0.000000 1.000000 0.000000
      length 8.977654
      axis 0.0 0.0 0.0 xyz
   end
   begin
      id 8
      name Head
      direction 0.000000 1.000000 0.000000
      length 4.527550
      axis 0.0 0.0 0.0 xyz
      dof rx ry rz
   end
   begin
      id 9
      name LeftShoulder
      direction 1.000000 0.000000 0.000000
      length 7.110130
      axis 0.0 0.0 -90.0 xyz
      dof rx ry rz
   end
   begin
      id 10
      name LeftArm
      direction 1.000000 0.000000 0.000000
      length 10.398341
      axis 0.0 0.0 -90.0 xyz
      dof rx ry rz
   end
   begin
      id 11
      name LeftForeArm
      direction 1.000000 0.000000 0.000000
      length 8.888997
      axis 0.0 0.0 -90.0 xyz
      dof ry rz rx
   end
   begin
      id 12
      name LeftHand
      direction 0.000000 0.000000 0.000000
      length 0.000000
      axis 0.0 0.0 -90.0 xyz
      dof rx ry rz
   end
   begin
      id 13
      name LeftHand_dum1
      direction 0.000000 0.000000 0.000000
      length 0.000000
      axis 0.0 0.0 -90.0 xyz
   end
   begin
      id 14
      name LeftHand_dum2
      direction 1.000000 0.000000 0.000000
      length 3.937000
      axis 0.0 0.0 -90.0 xyz
   end
   begin
      id 15
      name LeftHandThumb1
      direction 0.000000 0.000000 1.000000
      length 3.937000
      axis 0.0 0.0 -90.0 xyz
      dof rx rz ry
   end
   begin
      id 16
      name RightShoulder
      direction -1.000000 0.000000 0.000000
      length 7.110130
      axis 0.0 0.0 90.0 xyz
      dof rx ry rz
   end
   begin
      id 17
      name RightArm
      direction -1.000000 0.000000 0.000000
      length 10.398341
      axis 0.0 0.0 90.0 xyz
      dof rx ry rz
   end
   begin
      id 18
      name RightForeArm
      direction -1.000000 0.000000 0.000000
      length 8.888997
      axis 0.0 0.0 90.0 xyz
      dof ry rz rx
   end
   begin
      id 19
      name RightHand
      direction 0.000000 0.000000 0.000000
      length 0.000000
      axis 0.0 0.0 90.0 xyz
      dof rx ry rz
   end
   begin
      id 20
      name RightHand_dum1
      direction 0.000000 0.000000 0.000000
      length 0.000000
      axis 0.0 0.0 90.0 xyz
   end
   begin
      id 21
      name RightHand_dum2
      direction -1.000000 0.000000 0.000000
      length 3.937000
      axis 0.0 0.0 90.0 xyz
   end
   begin
      id 22
      name RightHandThumb1
      direction 0.000000 0.000000 1.000000
      length 3.937000
      axis 0.0 0.0 90.0 xyz
      dof rx rz ry
   end
   begin
      id 23
      name LeftUpLeg
      direction 0.000000 -1.000000 0.000000
      length 15.510451
      axis 0.0 0.0 0.0 xyz
      dof rx ry rz
   end
   begin
      id 24
      name LeftLeg
      direction 0.000000 -1.000000 0.000000
      length 14.858061
      axis 0.0 0.0 0.0 xyz
      dof rx ry rz
   end
   begin
      id 25
      name LeftFoot
      direction 0.000000 -0.258819 0.965926
      length 5.128852
      axis 15.0 0.0 0.0 xyz
      dof rx ry rz
   end
   begin
      id 26
      name LeftToeBase
      direction 0.000000 0.000000 1.000000
      length 2.952750
      axis 0.0 0.0 0.0 xyz
      dof rx ry rz
   end
   begin
      id 27
      name RightUpLeg
      direction 0.000000 -1.000000 0.000000
      length 15.510451
      axis 0.0 0.0 0.0 xyz
      dof rx ry rz
   end
   begin
      id 28
      name RightLeg
      direction 0.000000 -1.000000 0.000000
      length 14.858061
      axis 0.0 0.0 0.0 xyz
      dof rx ry rz
   end
   begin
      id 29
      name RightFoot
      direction 0.000000 -0.258819 0.965926
      length 5.128852
      axis 15.0 0.0 0.0 xyz
      dof rx ry rz
   end
   begin
      id 30
      name RightToeBase
      direction 0.000000 0.000000 1.000000
      length 2.952750
      axis 0.0 0.0 0.0 xyz
      dof rx ry rz
   end
:hierarchy
   begin
      root Spine_dum LeftUpLeg_dum RightUpLeg_dum
      Spine_dum Spine
      LeftUpLeg_dum LeftUpLeg
      RightUpLeg_dum RightUpLeg
      Spine Spine_dum1 Spine_dum2 Spine_dum3
      Spine_dum1 Head
      Spine_dum2 LeftShoulder
      Spine_dum3 RightShoulder
      LeftShoulder LeftArm
      LeftArm LeftForeArm
      LeftForeArm LeftHand
      LeftHand LeftHand_dum1 LeftHand_dum2
      LeftHand_dum1 LeftHandThumb1
      RightShoulder RightArm
      RightArm RightForeArm
      RightForeArm RightHand
      RightHand RightHand_dum1 RightHand_dum2
      RightHand_dum1 RightHandThumb1
      LeftUpLeg LeftLeg
      LeftLeg LeftFoot
      LeftFoot LeftToeBase
      RightUpLeg RightLeg
      RightLeg RightFoot
      RightFoot RightToeBase
   end

# File created by Blade
# Date/Time:  Tue Jan 27 20:02:37 2015
# Frame Rate: 120.000 fps
#------------------------------------------------------
:FULLY-SPECIFIED
:DEGREES
924
root 8.086397 32.546139 4.020570 -9.192837 28.813147 -5.613183
Spine 8.338056 -11.420444 -0.922336
Head 10.679488 -14.687822 8.174209
LeftShoulder -9.847510 -6.403432 30.702936
LeftArm -2.643531 -2.951797 -82.172749
LeftForeArm -8.746431 -0.000000 111.558975
LeftHand 12.836200 -0.000000 -0.079788
LeftHandThumb1 -26.253704 0.000000 33.147579
RightShoulder -23.054610 -18.447509 -19.906466
RightArm 8.910145 -22.801133 91.491122
RightForeArm -12.356155 -0.000000 14.875383
RightHand 17.033141 0.000000 9.632572
RightHandThumb1 -24.326973 -0.000000 -32.862282
LeftUpLeg 13.143490 -0.240072 -2.827515
LeftLeg -2.976688 -0.000000 0.000000
LeftFoot -11.470345 5.276036 -15.619471
LeftToeBase 22.247662 -0.000000 -0.000000
RightUpLeg -52.004086 11.654770 10.041657
RightLeg 87.053867 -0.000000 -0.000000
RightFoot 21.922707 -24.733482 8.346286
RightToeBase 16.720971 -0.000000 -0.000000
925
root 8.077332 32.534549 4.001256 -8.978578 28.350850 -5.486564
Spine 8.265921 -11.093815 -1.004306
Head 10.465163 -14.594649 8.259984
LeftShoulder -9.851614 -6.338652 30.723103
LeftArm -2.654797 -3.117276 -82.101651
LeftForeArm -8.811587 -0.000000 111.699091
LeftHand 12.784176 -0.000000 -0.049946
LeftHandThumb1 -26.253704 0.000000 33.147579
RightShoulder -23.062477 -18.407989 -19.899815
RightArm 8.970351 -22.826659 91.528433
RightForeArm -12.345689 0.000000 14.759056
RightHand 17.040421 -0.000000 9.597599
RightHandThumb1 -24.326973 -0.000000 -32.862282
LeftUpLeg 13.026593 0.062614 -2.907332
LeftLeg -3.031363 -0.000000 0.000000
LeftFoot -11.521806 5.471893 -15.632917
LeftToeBase 22.187098 -0.000000 -0.000000
RightUpLeg -51.983285 11.102912 10.804943
RightLeg 86.600133 -0.000000 -0.000000
RightFoot 21.370822 -25.617682 8.615818
RightToeBase 16.814657 -0.000000 -0.000000
926
root 8.065202 32.522016 3.980300 -8.743732 27.885475 -5.353538
Spine 8.184591 -10.809227 -1.098016
Head 10.239943 -14.443028 8.321050
LeftShoulder -9.907631 -6.346408 30.766095
LeftArm -2.767947 -3.261156 -81.982988
LeftForeArm -8.905121 -0.000000 111.836992
LeftHand 12.702072 -0.000000 -0.019677
LeftHandThumb1 -26.253704 0.000000 33.147579
RightShoulder -23.030434 -18.351223 -19.911451
RightArm 8.987913 -22.775319 91.584479
RightForeArm -12.190417 0.000000 14.727675
RightHand 16.918016 -0.000000 10.826820
RightHandThumb1 -24.326973 -0.000000 -32.862282
LeftUpLeg 12.886642 0.333166 -2.990859
LeftLeg -3.086358 -0.000000 0.000000
LeftFoot -11.586348 5.661169 -15.676098
LeftToeBase 22.237037 -0.000000 -0.000000
RightUpLeg -52.020071 10.600437 11.514746
RightLeg 86.214905 -0.000000 -0.000000
RightFoot 20.677979 -26.462023 9.305647
RightToeBase 16.794293 -0.000000 -0.000000
927
root 8.056438 32.509641 3.960567 -8.525017 27.375818 -5.227581
Spine 8.111953 -10.496324 -1.166928
Head 10.018471 -14.270224 8.356444
LeftShoulder -9.988708 -6.167007 30.777257
LeftArm -2.700749 -3.431314 -81.874051
LeftForeArm -8.991541 0.000000 111.949221
LeftHand 12.644914 -0.000000 -0.106326
LeftHandThumb1 -26.253704 0.000000 33.147579
RightShoulder -22.969385 -18.277768 -19.932400
RightArm 9.011153 -22.751337 91.633888
RightForeArm -12.286670 0.000000 14.667559
RightHand 16.907383 -0.000000 10.610326
RightHandThumb1 -24.326973 -0.000000 -32.862282
LeftUpLeg 12.776064 0.612901 -3.070014
LeftLeg -3.157724 -0.000000 0.000000
LeftFoot -11.665112 5.841811 -15.788522
LeftToeBase 22.400181 -0.000000 -0.000000
RightUpLeg -52.037731 10.183540 12.214992
RightLeg 85.844644 -0.000000 -0.000000
RightFoot 20.422252 -27.139365 9.522718
RightToeBase 15.700778 -0.000000 -0.000000
928
root 8.046811 32.496529 3.940834 -8.296919 26.837406 -5.082772
Spine 8.040005 -10.160961 -1.256127
Head 9.810631 -14.086673 8.369496
LeftShoulder -10.063760 -6.120810 30.825547
LeftArm -2.791707 -3.581317 -81.768781
LeftForeArm -8.777267 -0.000000 112.065799
LeftHand 12.568653 -0.000000 -0.104243
LeftHandThumb1 -26.253704 0.000000 33.147579
RightShoulder -22.895074 -18.174745 -19.985760
RightArm 8.998336 -22.756794 91.713065
RightForeArm -12.346071 -0.000000 14.603429
RightHand 16.887416 -0.000000 10.486583
RightHandThumb1 -24.326973 -0.000000 -32.862282
LeftUpLeg 12.671113 0.883902 -3.172945
LeftLeg -3.233153 -0.000000 0.000000
LeftFoot -11.682269 6.095022 -15.737618
LeftToeBase 22.146337 -0.000000 -0.000000
RightUpLeg -52.092345 9.941562 12.830400
RightLeg 85.514527 -0.000000 -0.000000
RightFoot 19.797447 -28.111998 10.523752
RightToeBase 16.180309 -0.000000 -0.000000
929
root 8.035086 32.485573 3.921606 -8.110058 26.270658 -4.960840
Spine 8.011618 -9.766110 -1.322223
Head 9.589205 -13.915722 8.384938
LeftShoulder -10.168863 -6.149166 30.877742
LeftArm -2.884823 -3.707673 -81.630580
LeftForeArm -8.807755 -0.000000 112.127921
LeftHand 12.544773 -0.000000 -0.398392
LeftHandThumb1 -26.253704 0.000000 33.147579
RightShoulder -22.819332 -18.074510 -20.029359
RightArm 8.960597 -22.746585 91.815807
RightForeArm -12.652399 -0.000000 14.558555
RightHand 16.961012 0.000000 9.503305
RightHandThumb1 -24.326973 -0.000000 -32.862282
LeftUpLeg 12.593550 1.114825 -3.266165
LeftLeg -3.325362 -0.000000 0.000000
LeftFoot -11.764846 6.422031 -15.794452
LeftToeBase 22.301141 -0.000000 -0.000000
RightUpLeg -52.113163 9.662434 13.457673
RightLeg 85.185599 -0.000000 -0.000000
RightFoot 19.383607 -29.065911 11.276805
RightToeBase 16.598312 -0.000000 -0.000000
930
root 8.023872 32.475630 3.901096 -7.921479 25.703665 -4.838609
Spine 7.991092 -9.379200 -1.388457
Head 9.353027 -13.723915 8.395461
LeftShoulder -10.218405 -5.993438 30.881394
LeftArm -2.856454 -3.935913 -81.487865
LeftForeArm -8.940720 -0.000000 112.247921
LeftHand 12.508584 -0.000000 -0.580762
LeftHandThumb1 -26.253704 0.000000 33.147579
RightShoulder -22.742872 -18.016490 -20.059372
RightArm 8.979327 -22.710549 91.876775
RightForeArm -12.409798 -0.000000 14.549525
RightHand 16.856377 0.000000 10.698159
RightHandThumb1 -24.326973 -0.000000 -32.862282
LeftUpLeg 12.504393 1.308892 -3.370883
LeftLeg -3.398506 -0.000000 0.000000
LeftFoot -11.872434 6.785376 -15.937084
LeftToeBase 22.416540 -0.000000 -0.000000
RightUpLeg -52.168038 9.352176 14.037942
RightLeg 84.917574 -0.000000 -0.000000
RightFoot 18.931240 -29.933452 12.080087
RightToeBase 17.849311 -0.000000 -0.000000
